# xmcd CD database file
#
# Track frame offsets:
#	150
#	22809
#	74480
#	96101
#	131839
#	155109
#
# Disc length: 2435 seconds
#
# Revision: 0
# Processed by: cddbd v1.5.2PL0 Copyright (c) Steve Scherf et al.
# Submitted via: CDex 1.70beta2
#
DISCID=4e098106
DTITLE=Gianni Basso - Quartetto Gianni Basso
DYEAR=1981
DGENRE=Jazz
TTITLE0=Four Brothers 
TTITLE1=Stormy Weather
TTITLE2=Vichy
TTITLE3=Cheek To Cheek
TTITLE4=My Wife 
TTITLE5=Red And Green
EXTD=YEAR: 1981
EXTT0=
EXTT1=
EXTT2=
EXTT3=
EXTT4=
EXTT5=
PLAYORDER=
